<svg width="14" height="12" viewBox="0 0 14 12" fill="none" xmlns="http://www.w3.org/2000/svg">
<path d="M13.6875 6.71094L8.6875 11.7109C8.5 11.8984 8.25 11.9922 8 11.9922C7.71875 11.9922 7.46875 11.8984 7.28125 11.7109C6.875 11.3359 6.875 10.6797 7.28125 10.3047L10.5625 6.99219H1C0.4375 6.99219 0 6.55469 0 5.99219C0 5.46094 0.4375 4.99219 1 4.99219H10.5625L7.28125 1.71094C6.875 1.33594 6.875 0.679688 7.28125 0.304688C7.65625 -0.101562 8.3125 -0.101562 8.6875 0.304688L13.6875 5.30469C14.0938 5.67969 14.0938 6.33594 13.6875 6.71094Z" fill="#FEFEFF"/>
</svg>
